<svg xmlns="http://www.w3.org/2000/svg" viewBox="0 0 64 64" width="64" height="64" role="img" aria-label="Stonie"><title>Stonie</title><defs><linearGradient id="s" x1="0.2" y1="0" x2="0.8" y2="1"><stop offset="0" stop-color="#d3cbbf"/><stop offset="1" stop-color="#998f82"/></linearGradient></defs><path d="M31 7c10-1 20 3 25 11 5 8 5 20-1 28-6 8-15 11-24 11-10 0-18-4-23-12-4-7-4-17 1-25C14 12 22 8 31 7z" fill="url(#s)"/><path d="M31 7c10-1 20 3 25 11 5 8 5 20-1 28-6 8-15 11-24 11-10 0-18-4-23-12-4-7-4-17 1-25C14 12 22 8 31 7z" fill="none" stroke="#2a241e" stroke-opacity=".18" stroke-width="1.5"/><path d="M17 17c5-5 12-6 18-5-7 2-12 5-15 10-2-1-4-3-3-5z" fill="#fff" fill-opacity=".45"/><ellipse cx="24" cy="33" rx="3.4" ry="4.2" fill="#221c17"/><ellipse cx="40" cy="33" rx="3.4" ry="4.2" fill="#221c17"/><circle cx="25.2" cy="31.6" r="1.1" fill="#fff"/><circle cx="41.2" cy="31.6" r="1.1" fill="#fff"/><circle cx="18.5" cy="41" r="3.2" fill="#e4512c" fill-opacity="0.45"/><circle cx="45.5" cy="41" r="3.2" fill="#e4512c" fill-opacity="0.45"/><ellipse cx="32" cy="43" rx="2.4" ry="2.9" fill="#221c17"/></svg>
